#!OML:ASF X:\für Bonn\!DataBase\2005_08_10_Bjorn_Final\c3d\bjorn.ASF
:FULLY-SPECIFIED
:DEGREES
49
root 0.581927 15.1158 3.6394 -180.252 0.198973 176.435
lowerback 20.5634 0.153831 -1.61451
upperback 9.3293 1.83605 -2.3167
thorax -1.33749 1.7551 -1.95147
lowerneck -15.5333 -1.64428 2.38698
upperneck 1.19755 -2.88742 -0.414592
head 3.085 -1.55099 -0.782305
rclavicle 1.15544e-014 -1.25234e-014
rhumerus 84.1569 -0.610852 -83.3866
rradius 6.48347
rwrist 53.3127
rhand -16.2322 9.47707
rfingers 7.12502
rthumb 9.97617 -20.2665
lclavicle 1.15544e-014 -1.25234e-014
lhumerus 89.059 -8.54843 82.306
lradius 6.94123
lwrist -62.2713
lhand -14.4152 -4.9484
lfingers 7.12502
lthumb 11.7287 24.7033
rfemur -48.1474 -10.7887 13.3136
rtibia 93.5043
rfoot -32.2276 20.8613
rtoes -15.3461
lfemur -48.5069 8.06662 -21.8035
ltibia 96.1033
lfoot -27.2004 -3.77397
ltoes -29.3477
50
root 0.581655 14.8828 3.66217 -180.244 0.111765 176.324
lowerback 20.945 0.0867098 -1.72324
upperback 9.44241 1.77726 -2.32228
thorax -1.40848 1.74672 -1.89518
lowerneck -15.3515 -1.60705 2.21039
upperneck 0.713267 -2.83863 -0.166665
head 2.88766 -1.53387 -0.656444
rclavicle 1.60767e-014 6.01324e-015
rhumerus 84.494 -0.753959 -83.2471
rradius 6.48172
rwrist 53.0271
rhand -15.9262 9.5862
rfingers 7.12502
rthumb 10.2713 -20.143
lclavicle 1.60767e-014 6.01324e-015
lhumerus 89.3468 -8.28078 82.2158
lradius 7.06249
lwrist -61.7682
lhand -14.4609 -4.98533
lfingers 7.12502
lthumb 11.6846 24.6688
rfemur -49.7572 -11.1867 13.0459
rtibia 96.0379
rfoot -32.4955 21.3472
rtoes -16.1606
lfemur -50.0257 8.35247 -21.8039
ltibia 98.4809
lfoot -27.4395 -4.40775
ltoes -29.7301
51
root 0.582415 14.6485 3.68148 -180.256 -0.00594747 176.215
lowerback 21.3325 0.024721 -1.8129
upperback 9.53413 1.72329 -2.33238
thorax -1.50404 1.73982 -1.85606
lowerneck -15.0509 -1.57691 2.07107
upperneck 0.160651 -2.80113 0.0569689
head 2.64504 -1.52468 -0.544499
rclavicle -3.97569e-015 9.29318e-015
rhumerus 84.6858 -0.927899 -83.1171
rradius 6.51974
rwrist 52.7814
rhand -15.7333 9.64823
rfingers 7.12502
rthumb 10.4574 -20.0717
lclavicle -3.97569e-015 9.29318e-015
lhumerus 89.5676 -8.06861 82.1346
lradius 7.14528
lwrist -61.3613
lhand -14.4367 -5.0984
lfingers 7.12502
lthumb 11.708 24.5544
rfemur -51.3101 -11.6535 12.7613
rtibia 98.53
rfoot -32.698 21.9089
rtoes -16.6689
lfemur -51.5031 8.64553 -21.7822
ltibia 100.81
lfoot -27.6567 -5.16288
ltoes -29.9264
52
root 0.582329 14.4126 3.69761 -180.278 -0.124676 176.142
lowerback 21.7269 2.50585 -0.863564
upperback 9.72818 0.960571 -1.96543
thorax -1.53581 -0.367404 -1.79788
lowerneck -14.6415 -1.53103 1.96314
upperneck -0.490968 -2.74431 0.20782
head 2.34966 -1.51167 -0.459043
rclavicle 1.42628e-014 -2.11209e-015
rhumerus 84.7753 -1.00795 -82.9939
rradius 6.59991
rwrist 52.5457
rhand -15.5862 9.70216
rfingers 7.12502
rthumb 10.5993 -20.0105
lclavicle 1.42628e-014 -2.11209e-015
lhumerus 89.7055 -7.81246 82.0692
lradius 7.22875
lwrist -61.0349
lhand -14.282 -5.16586
lfingers 7.12502
lthumb 11.8571 24.4784
rfemur -52.8155 -12.1647 12.5073
rtibia 100.972
rfoot -32.9595 22.4229
rtoes -17.4307
lfemur -52.9248 9.00174 -21.7188
ltibia 103.095
lfoot -27.8691 -5.91817
ltoes -30.0775
53
root 0.583035 14.1798 3.71032 -180.331 -0.235399 176.073
lowerback 22.1109 2.49033 -0.880706
upperback 9.78712 0.889609 -1.94655
thorax -1.66511 -0.41951 -1.75658
lowerneck -14.1099 -1.48664 1.92541
upperneck -1.1672 -2.69139 0.275544
head 2.02522 -1.50275 -0.411916
rclavicle 1.73937e-016 1.03865e-014
rhumerus 84.8154 -1.11849 -82.8671
rradius 6.58836
rwrist 52.3092
rhand -15.5881 9.80923
rfingers 7.12502
rthumb 10.5975 -19.9036
lclavicle 1.73937e-016 1.03865e-014
lhumerus 89.7484 -7.60554 82.0169
lradius 7.29991
lwrist -60.6838
lhand -14.0119 -5.24121
lfingers 7.12502
lthumb 12.1176 24.3879
rfemur -54.2491 -12.7101 12.2389
rtibia 103.344
rfoot -33.0359 23.1055
rtoes -17.8
lfemur -54.2811 9.42507 -21.6426
ltibia 105.319
lfoot -28.0927 -6.74211
ltoes -30.1609
54
root 0.583093 13.9486 3.7213 -180.392 -0.355898 176.02
lowerback 22.476 2.46927 -0.866098
upperback 9.83598 0.821792 -1.93514
thorax -1.79411 -0.467308 -1.7411
lowerneck -13.685 -1.46036 1.89781
upperneck -1.60112 -2.65547 0.367725
head 1.80498 -1.49316 -0.364684
rclavicle -2.11209e-014 1.19271e-015
rhumerus 84.8007 -1.23034 -82.7577
rradius 6.57701
rwrist 51.946
rhand -15.6753 9.89122
rfingers 7.12502
rthumb 10.5134 -19.8259
lclavicle -2.11209e-014 1.19271e-015
lhumerus 89.7427 -7.41433 81.9561
lradius 7.35343
lwrist -60.3722
lhand -13.6855 -5.31899
lfingers 7.12502
lthumb 12.4324 24.2913
rfemur -55.6447 -13.3211 11.9643
rtibia 105.657
rfoot -32.9974 23.9196
rtoes -17.7902
lfemur -55.5894 9.87776 -21.5489
ltibia 107.494
lfoot -28.3209 -7.49582
ltoes -30.3173
55
root 0.582727 13.7201 3.72984 -180.483 -0.449044 176.005
lowerback 22.8446 2.44572 -0.832966
upperback 9.87516 0.757732 -1.9029
thorax -1.93446 -0.512288 -1.71402
lowerneck -13.5488 -1.44103 1.85512
upperneck -1.57339 -2.6132 0.429912
head 1.7916 -1.46632 -0.333472
rclavicle 3.49737e-015 -7.37988e-015
rhumerus 84.7298 -1.27316 -82.6441
rradius 6.57391
rwrist 51.6217
rhand -15.7576 9.93955
rfingers 7.12502
rthumb 10.434 -19.7815
lclavicle 3.49737e-015 -7.37988e-015
lhumerus 89.6752 -7.18322 81.9119
lradius 7.3651
lwrist -59.9677
lhand -13.3043 -5.41837
lfingers 7.12502
lthumb 12.7998 24.1692
rfemur -56.9856 -13.957 11.7145
rtibia 107.914
rfoot -32.8558 24.7849
rtoes -17.5886
lfemur -56.8413 10.4397 -21.4085
ltibia 109.609
lfoot -28.5566 -8.32988
ltoes -30.4249
